<svg xmlns="http://www.w3.org/2000/svg" viewBox="0 0 512 512">
  <defs>
    <linearGradient id="bg" x1="0" y1="0" x2="0" y2="1">
      <stop offset="0%" stop-color="#121212"/>
      <stop offset="100%" stop-color="#000000"/>
    </linearGradient>
    <radialGradient id="sheen" cx="30%" cy="18%" r="70%">
      <stop offset="0%" stop-color="#ffffff" stop-opacity="0.08"/>
      <stop offset="100%" stop-color="#ffffff" stop-opacity="0"/>
    </radialGradient>
  </defs>
  <rect width="512" height="512" rx="112" fill="url(#bg)"/>
  <rect width="512" height="512" rx="112" fill="url(#sheen)"/>
  <g transform="translate(144, 120) scale(9.5)">
    <rect x="4" y="0" width="4" height="4" fill="#c8c8c8"/>
    <rect x="24" y="0" width="4" height="4" fill="#c8c8c8"/>
    <rect x="4" y="4" width="4" height="4" fill="#c8c8c8"/>
    <rect x="8" y="4" width="4" height="4" fill="#c8c8c8"/>
    <rect x="24" y="4" width="4" height="4" fill="#c8c8c8"/>
    <rect x="4" y="8" width="4" height="4" fill="#c8c8c8"/>
    <rect x="8" y="8" width="4" height="4" fill="#c8c8c8"/>
    <rect x="24" y="8" width="4" height="4" fill="#c8c8c8"/>
    <rect x="4" y="12" width="4" height="4" fill="#c8c8c8"/>
    <rect x="12" y="12" width="4" height="4" fill="#c8c8c8"/>
    <rect x="24" y="12" width="4" height="4" fill="#c8c8c8"/>
    <rect x="4" y="16" width="4" height="4" fill="#c8c8c8"/>
    <rect x="16" y="16" width="4" height="4" fill="#c8c8c8"/>
    <rect x="24" y="16" width="4" height="4" fill="#c8c8c8"/>
    <rect x="4" y="20" width="4" height="4" fill="#c8c8c8"/>
    <rect x="16" y="20" width="4" height="4" fill="#c8c8c8"/>
    <rect x="24" y="20" width="4" height="4" fill="#c8c8c8"/>
    <rect x="4" y="24" width="4" height="4" fill="#c8c8c8"/>
    <rect x="20" y="24" width="4" height="4" fill="#c8c8c8"/>
    <rect x="24" y="24" width="4" height="4" fill="#c8c8c8"/>
    <rect x="4" y="28" width="4" height="4" fill="#c8c8c8"/>
    <rect x="24" y="28" width="4" height="4" fill="#c8c8c8"/>
  </g>
</svg>
