<svg xmlns="http://www.w3.org/2000/svg" viewBox="0 0 512 512">
  <rect width="512" height="512" fill="#000000"/>
  <g transform="translate(168, 152) scale(7.2)">
    <rect x="4" y="0" width="4" height="4" fill="#c8c8c8"/>
    <rect x="24" y="0" width="4" height="4" fill="#c8c8c8"/>
    <rect x="4" y="4" width="4" height="4" fill="#c8c8c8"/>
    <rect x="8" y="4" width="4" height="4" fill="#c8c8c8"/>
    <rect x="24" y="4" width="4" height="4" fill="#c8c8c8"/>
    <rect x="4" y="8" width="4" height="4" fill="#c8c8c8"/>
    <rect x="8" y="8" width="4" height="4" fill="#c8c8c8"/>
    <rect x="24" y="8" width="4" height="4" fill="#c8c8c8"/>
    <rect x="4" y="12" width="4" height="4" fill="#c8c8c8"/>
    <rect x="12" y="12" width="4" height="4" fill="#c8c8c8"/>
    <rect x="24" y="12" width="4" height="4" fill="#c8c8c8"/>
    <rect x="4" y="16" width="4" height="4" fill="#c8c8c8"/>
    <rect x="16" y="16" width="4" height="4" fill="#c8c8c8"/>
    <rect x="24" y="16" width="4" height="4" fill="#c8c8c8"/>
    <rect x="4" y="20" width="4" height="4" fill="#c8c8c8"/>
    <rect x="16" y="20" width="4" height="4" fill="#c8c8c8"/>
    <rect x="24" y="20" width="4" height="4" fill="#c8c8c8"/>
    <rect x="4" y="24" width="4" height="4" fill="#c8c8c8"/>
    <rect x="20" y="24" width="4" height="4" fill="#c8c8c8"/>
    <rect x="24" y="24" width="4" height="4" fill="#c8c8c8"/>
    <rect x="4" y="28" width="4" height="4" fill="#c8c8c8"/>
    <rect x="24" y="28" width="4" height="4" fill="#c8c8c8"/>
  </g>
</svg>
