<svg xmlns="http://www.w3.org/2000/svg" viewBox="0 0 512 512"><rect width="512" height="512" rx="112" fill="#000000"/><g transform="translate(87.04, 87.04) scale(10.5600)"><g transform="translate(-2.00, -2.00)"><g id="noxservo-n">
    <rect x="8" y="4" width="4" height="4" fill="#444444"/>
    <rect x="28" y="4" width="4" height="4" fill="#444444"/>
    <rect x="8" y="8" width="4" height="4" fill="#444444"/>
    <rect x="12" y="8" width="4" height="4" fill="#444444"/>
    <rect x="28" y="8" width="4" height="4" fill="#444444"/>
    <rect x="8" y="12" width="4" height="4" fill="#444444"/>
    <rect x="12" y="12" width="4" height="4" fill="#444444"/>
    <rect x="28" y="12" width="4" height="4" fill="#444444"/>
    <rect x="8" y="16" width="4" height="4" fill="#444444"/>
    <rect x="16" y="16" width="4" height="4" fill="#444444"/>
    <rect x="28" y="16" width="4" height="4" fill="#444444"/>
    <rect x="8" y="20" width="4" height="4" fill="#444444"/>
    <rect x="20" y="20" width="4" height="4" fill="#444444"/>
    <rect x="28" y="20" width="4" height="4" fill="#444444"/>
    <rect x="8" y="24" width="4" height="4" fill="#444444"/>
    <rect x="20" y="24" width="4" height="4" fill="#444444"/>
    <rect x="28" y="24" width="4" height="4" fill="#444444"/>
    <rect x="8" y="28" width="4" height="4" fill="#444444"/>
    <rect x="24" y="28" width="4" height="4" fill="#444444"/>
    <rect x="28" y="28" width="4" height="4" fill="#444444"/>
    <rect x="8" y="32" width="4" height="4" fill="#444444"/>
    <rect x="28" y="32" width="4" height="4" fill="#444444"/>
    <rect x="4" y="0" width="4" height="4" fill="#d4d4d4"/>
    <rect x="24" y="0" width="4" height="4" fill="#d4d4d4"/>
    <rect x="4" y="4" width="4" height="4" fill="#bcbcbc"/>
    <rect x="8" y="4" width="4" height="4" fill="#bcbcbc"/>
    <rect x="24" y="4" width="4" height="4" fill="#bcbcbc"/>
    <rect x="4" y="8" width="4" height="4" fill="#d4d4d4"/>
    <rect x="8" y="8" width="4" height="4" fill="#d4d4d4"/>
    <rect x="24" y="8" width="4" height="4" fill="#d4d4d4"/>
    <rect x="4" y="12" width="4" height="4" fill="#bcbcbc"/>
    <rect x="12" y="12" width="4" height="4" fill="#bcbcbc"/>
    <rect x="24" y="12" width="4" height="4" fill="#bcbcbc"/>
    <rect x="4" y="16" width="4" height="4" fill="#d4d4d4"/>
    <rect x="16" y="16" width="4" height="4" fill="#d4d4d4"/>
    <rect x="24" y="16" width="4" height="4" fill="#d4d4d4"/>
    <rect x="4" y="20" width="4" height="4" fill="#bcbcbc"/>
    <rect x="16" y="20" width="4" height="4" fill="#bcbcbc"/>
    <rect x="24" y="20" width="4" height="4" fill="#bcbcbc"/>
    <rect x="4" y="24" width="4" height="4" fill="#d4d4d4"/>
    <rect x="20" y="24" width="4" height="4" fill="#d4d4d4"/>
    <rect x="24" y="24" width="4" height="4" fill="#d4d4d4"/>
    <rect x="4" y="28" width="4" height="4" fill="#bcbcbc"/>
    <rect x="24" y="28" width="4" height="4" fill="#bcbcbc"/>
  </g></g></g></svg>